<svg>
      <symbol fill="inherit" xmlns="http://www.w3.org/2000/svg" viewBox="0 0 13 13" id="search">
    <g clip-path="url(#clip0_9_19)">
      <path d="M12.8416 12.0758L9.60783 8.84204C10.4886 7.76481 10.9216 6.39027 10.8173 5.00273C10.7131 3.61519 10.0795 2.3208 9.04763 1.3873C8.01577 0.453803 6.66459 -0.0473866 5.27357 -0.0126007C3.88255 0.0221852 2.55811 0.590285 1.57421 1.57419C0.5903 2.5581 0.0222005 3.88254 -0.0125854 5.27356C-0.0473713 6.66458 0.453818 8.01576 1.38732 9.04761C2.32081 10.0795 3.6152 10.7131 5.00274 10.8173C6.39029 10.9216 7.76483 10.4886 8.84205 9.60782L12.0758 12.8416C12.1791 12.9339 12.3139 12.9832 12.4524 12.9793C12.5909 12.9754 12.7227 12.9186 12.8207 12.8207C12.9187 12.7227 12.9754 12.5909 12.9793 12.4524C12.9832 12.3139 12.9339 12.1791 12.8416 12.0758ZM5.41737 9.75001C4.55987 9.75041 3.72153 9.49647 3.00838 9.02033C2.29523 8.54418 1.73933 7.86721 1.411 7.07507C1.08266 6.28293 0.996649 5.4112 1.16384 4.57016C1.33103 3.72913 1.74391 2.95657 2.35025 2.35023C2.95659 1.74389 3.72914 1.33101 4.57018 1.16382C5.41121 0.996633 6.28294 1.08265 7.07509 1.41098C7.86723 1.73931 8.5442 2.29522 9.02034 3.00836C9.49649 3.72151 9.75042 4.55986 9.75002 5.41735C9.74841 6.56595 9.29142 7.66704 8.47924 8.47922C7.66705 9.2914 6.56596 9.74839 5.41737 9.75001Z"></path>
    </g>
    <defs>
      <clipPath id="clip0_9_19">
        <rect width="13" height="13" fill="white"></rect>
      </clipPath>
    </defs>
  </symbol>
  <symbol viewBox="0 0 26 20"  xmlns="http://www.w3.org/2000/svg" id="eye">
     <svg >
<g clipPath="url(#clip0_1267_196)">
<path fillRule="evenodd" clipRule="evenodd" d="M16.9518 10.0664C16.9518 12.2489 15.1818 14.0176 12.9993 14.0176C10.8168 14.0176 9.0481 12.2489 9.0481 10.0664C9.0481 7.88264 10.8168 6.11389 12.9993 6.11389C15.1818 6.11389 16.9518 7.88264 16.9518 10.0664Z" stroke="white" strokeWidth="1.5" strokeLinecap="round" strokeLinejoin="round"/>
<path fillRule="evenodd" clipRule="evenodd" d="M12.9975 19.1936C17.7575 19.1936 22.1113 15.7711 24.5625 10.0661C22.1113 4.3611 17.7575 0.938599 12.9975 0.938599H13.0025C8.2425 0.938599 3.88875 4.3611 1.4375 10.0661C3.88875 15.7711 8.2425 19.1936 13.0025 19.1936H12.9975Z" stroke="white" strokeWidth="1.5" strokeLinecap="round" strokeLinejoin="round"/>
</g><defs><clipPath id="clip0_1267_196"><rect width="26" height="20"/></clipPath>
</defs>
</svg>
  </symbol>
  <symbol viewBox="0 0 26 28"  xmlns="http://www.w3.org/2000/svg" id="like">
    <svg>
<path d="M18.5555 3.26091C21.6308 3.26091 24.1211 5.94223 24.1211 9.24755C24.1211 15.2342 18.5555 18.6429 12.997 24.6296C7.43793 18.6429 1.87891 15.2342 1.87891 9.2476C1.87891 5.94229 4.36922 3.26096 7.43793 3.26096C10.2172 3.26096 11.6071 4.75776 12.997 7.7508C14.3863 4.75776 15.7762 3.26091 18.5555 3.26091Z" />
</svg>
  </symbol>
   
    </svg>