<svg width="473" height="203" viewBox="0 0 473 203" fill="none" xmlns="http://www.w3.org/2000/svg">
<g clip-path="url(#clip0_1305_2)">
<path d="M96.6976 9.76715C75.1569 34.0141 63.2832 65.0163 63.2484 97.1031C63.2832 129.159 75.134 160.133 96.6371 184.371C118.142 160.134 129.994 129.159 130.03 97.1031C130.027 65.031 118.196 34.0305 96.6976 9.76715Z" fill="#CEC471"/>
<path d="M258.426 118.713C227.854 107.882 194.663 108.549 164.922 120.593C135.236 132.69 111 155.327 96.6371 184.371C127.186 195.172 160.343 194.496 190.056 182.464C219.769 170.392 244.037 147.763 258.426 118.713Z" fill="#423D5A" fill-opacity="0.613909"/>
<path d="M2.74167 37.1633C-2.36901 69.1914 4.30347 101.712 21.5386 128.777C38.8157 155.778 65.4707 175.51 96.6371 184.371C101.722 152.37 95.0469 119.885 77.8292 92.845C60.5707 65.8123 33.9179 46.0477 2.74167 37.1633Z" fill="#C3B961" fill-opacity="0.688249"/>
<path d="M190.532 37.1633C195.643 69.1914 188.971 101.712 171.736 128.777C154.458 155.778 127.803 175.51 96.6371 184.371C91.5516 152.37 98.2272 119.885 115.445 92.845C132.703 65.8123 159.356 46.0477 190.532 37.1633Z" fill="#5B573E" fill-opacity="0.688249"/>
<path d="M175.536 150.038C175.536 148.803 175.332 147.733 174.926 146.827C174.52 145.921 173.989 145.178 173.332 144.6C172.676 144.022 171.934 143.592 171.106 143.311C170.278 143.03 169.45 142.889 168.621 142.889C167.512 142.889 166.575 143.007 165.809 143.241C165.043 143.475 164.418 143.796 163.934 144.202C163.465 144.608 163.121 145.092 162.903 145.655C162.7 146.202 162.598 146.796 162.598 147.436C162.598 148.186 162.731 148.944 162.996 149.71C163.278 150.46 163.684 151.194 164.215 151.913L164.121 152.171C163.231 152.608 162.332 152.827 161.426 152.827C160.895 152.827 160.395 152.749 159.926 152.592C159.473 152.421 159.075 152.178 158.731 151.866C158.403 151.553 158.137 151.171 157.934 150.717C157.746 150.264 157.653 149.757 157.653 149.194C157.653 148.272 157.871 147.405 158.309 146.592C158.762 145.78 159.356 145.038 160.09 144.366C160.825 143.694 161.676 143.092 162.645 142.561C163.614 142.03 164.614 141.585 165.645 141.225C166.676 140.85 167.707 140.569 168.739 140.382C169.786 140.178 170.754 140.077 171.645 140.077C173.286 140.077 174.684 140.296 175.84 140.733C177.012 141.171 177.957 141.811 178.676 142.655C179.411 143.483 179.942 144.491 180.27 145.678C180.614 146.866 180.786 148.21 180.786 149.71C180.786 150.741 180.739 151.874 180.645 153.108C180.567 154.342 180.473 155.639 180.364 156.999C180.254 158.342 180.153 159.733 180.059 161.171C179.981 162.608 179.942 164.038 179.942 165.46C179.942 167.71 180.356 169.405 181.184 170.546C182.028 171.671 183.129 172.233 184.489 172.233C185.692 172.233 187.036 171.788 188.52 170.897L189.2 171.905C188.153 172.952 187.012 173.749 185.778 174.296C184.543 174.842 183.246 175.116 181.887 175.116C180.871 175.116 179.934 174.944 179.075 174.6C178.215 174.257 177.473 173.749 176.848 173.077C176.223 172.389 175.739 171.53 175.395 170.499C175.051 169.467 174.879 168.272 174.879 166.913C174.879 166.507 174.887 166.1 174.903 165.694C174.934 165.288 174.989 164.858 175.067 164.405H174.926C174.254 165.749 173.473 167.077 172.582 168.389C171.707 169.686 170.739 170.85 169.676 171.882C168.629 172.897 167.504 173.717 166.301 174.342C165.114 174.983 163.864 175.303 162.551 175.303C161.473 175.303 160.489 175.116 159.598 174.741C158.707 174.366 157.942 173.85 157.301 173.194C156.676 172.538 156.184 171.764 155.825 170.874C155.481 169.967 155.309 168.983 155.309 167.921C155.309 166.546 155.559 165.296 156.059 164.171C156.575 163.046 157.278 162.038 158.168 161.147C159.075 160.257 160.153 159.491 161.403 158.85C162.653 158.194 164.012 157.655 165.481 157.233C166.95 156.796 168.504 156.475 170.145 156.272C171.786 156.053 173.457 155.944 175.161 155.944C175.27 154.96 175.356 154.007 175.418 153.085C175.496 152.163 175.536 151.147 175.536 150.038ZM161.145 166.139C161.145 166.749 161.207 167.335 161.332 167.897C161.473 168.444 161.684 168.928 161.965 169.35C162.262 169.772 162.629 170.108 163.067 170.358C163.52 170.592 164.059 170.71 164.684 170.71C165.387 170.71 166.114 170.546 166.864 170.217C167.614 169.889 168.348 169.436 169.067 168.858C169.801 168.28 170.496 167.592 171.153 166.796C171.825 165.983 172.426 165.1 172.957 164.147C173.489 163.194 173.926 162.194 174.27 161.147C174.629 160.085 174.864 158.999 174.973 157.889C173.817 157.921 172.668 157.999 171.528 158.124C170.387 158.233 169.301 158.413 168.27 158.663C167.254 158.913 166.309 159.241 165.434 159.647C164.559 160.053 163.801 160.561 163.161 161.171C162.536 161.764 162.043 162.475 161.684 163.303C161.325 164.116 161.145 165.061 161.145 166.139ZM189.317 192.108C189.192 188.764 189.012 185.452 188.778 182.171C188.543 178.905 188.27 175.616 187.957 172.303C187.957 172.022 188.098 171.882 188.379 171.882C188.786 171.882 189.207 171.882 189.645 171.882C190.082 171.866 190.528 171.858 190.981 171.858C191.809 169.546 192.692 167.186 193.629 164.78C194.582 162.358 195.606 159.889 196.7 157.374C197.809 154.858 199.012 152.288 200.309 149.663C201.621 147.038 203.059 144.342 204.621 141.577C204.809 141.249 205.02 140.991 205.254 140.803C205.489 140.6 205.731 140.452 205.981 140.358C206.231 140.249 206.481 140.178 206.731 140.147C206.996 140.116 207.239 140.1 207.457 140.1C207.942 140.1 208.418 140.147 208.887 140.241C209.356 140.319 209.801 140.46 210.223 140.663C210.661 143.303 211.075 145.725 211.465 147.928C211.856 150.132 212.239 152.178 212.614 154.069C212.989 155.944 213.348 157.686 213.692 159.296C214.036 160.905 214.387 162.428 214.746 163.866C215.106 165.288 215.465 166.655 215.825 167.967C216.184 169.264 216.559 170.553 216.95 171.835C217.746 171.85 218.489 171.866 219.176 171.882C219.864 171.897 220.473 171.921 221.004 171.952C221.286 171.967 221.481 172.014 221.59 172.092C221.7 172.171 221.754 172.296 221.754 172.467C221.754 172.499 221.746 172.546 221.731 172.608C221.731 172.655 221.723 172.717 221.707 172.796C221.161 176.061 220.645 179.303 220.161 182.522C219.692 185.741 219.254 188.999 218.848 192.296L216.973 192.225C216.942 189.194 216.864 186.186 216.739 183.202C216.629 180.233 216.512 177.233 216.387 174.202C215.575 174.186 214.809 174.171 214.09 174.155C213.371 174.155 212.661 174.147 211.957 174.132C211.254 174.132 210.543 174.132 209.825 174.132C209.106 174.132 208.348 174.132 207.551 174.132H200.332C199.52 174.132 198.77 174.132 198.082 174.132C197.411 174.132 196.77 174.132 196.161 174.132C195.567 174.147 195.004 174.155 194.473 174.155C193.942 174.171 193.426 174.186 192.926 174.202C192.754 175.608 192.59 177.069 192.434 178.585C192.278 180.1 192.129 181.632 191.989 183.178C191.848 184.725 191.707 186.257 191.567 187.772C191.442 189.303 191.317 190.772 191.192 192.178L189.317 192.108ZM207.973 171.764C208.567 171.764 209.153 171.764 209.731 171.764C210.325 171.764 210.911 171.772 211.489 171.788C210.942 169.803 210.426 167.788 209.942 165.741C209.457 163.678 208.989 161.546 208.536 159.342C208.098 157.124 207.668 154.803 207.246 152.382C206.84 149.96 206.426 147.374 206.004 144.624H205.84C203.246 149.327 200.981 153.967 199.043 158.546C197.121 163.108 195.496 167.53 194.168 171.811C195.731 171.811 197.239 171.803 198.692 171.788C200.161 171.772 201.442 171.764 202.536 171.764H207.973ZM247.325 127.678C247.325 126.944 247.286 126.319 247.207 125.803C247.145 125.272 246.989 124.842 246.739 124.514C246.489 124.186 246.129 123.952 245.661 123.811C245.207 123.655 244.598 123.577 243.832 123.577C243.317 123.577 242.684 123.608 241.934 123.671C241.184 123.717 240.403 123.803 239.59 123.928L239.356 121.983C241.653 121.389 243.621 120.952 245.262 120.671C246.918 120.389 248.286 120.249 249.364 120.249C250.395 120.249 251.184 120.389 251.731 120.671C252.293 120.936 252.7 121.342 252.95 121.889C253.215 122.421 253.371 123.077 253.418 123.858C253.465 124.639 253.489 125.53 253.489 126.53C253.489 126.733 253.473 127.257 253.442 128.1C253.426 128.944 253.403 130.022 253.371 131.335C253.34 132.632 253.293 134.116 253.231 135.788C253.184 137.46 253.129 139.217 253.067 141.061C253.02 142.905 252.965 144.796 252.903 146.733C252.856 148.671 252.801 150.553 252.739 152.382C252.692 154.194 252.637 155.921 252.575 157.561C252.528 159.186 252.489 160.624 252.457 161.874C252.426 163.108 252.395 164.108 252.364 164.874C252.348 165.639 252.34 166.069 252.34 166.163C252.34 166.897 252.364 167.561 252.411 168.155C252.457 168.733 252.614 169.225 252.879 169.632C253.145 170.038 253.559 170.35 254.121 170.569C254.684 170.788 255.489 170.897 256.536 170.897C256.895 170.897 257.356 170.889 257.918 170.874C258.481 170.858 259.098 170.85 259.77 170.85C260.457 170.835 261.184 170.819 261.95 170.803C262.715 170.788 263.481 170.78 264.246 170.78H267.129C267.832 170.78 268.536 170.788 269.239 170.803C269.942 170.803 270.661 170.811 271.395 170.827C272.129 170.842 272.895 170.858 273.692 170.874C274.489 170.874 275.34 170.882 276.246 170.897C276.153 170.522 276.075 170.116 276.012 169.678C275.95 169.241 275.903 168.686 275.871 168.014C275.84 167.327 275.817 166.491 275.801 165.507C275.786 164.507 275.778 163.28 275.778 161.827C275.778 157.389 275.817 153.272 275.895 149.475C275.973 145.678 276.075 142.155 276.2 138.905C276.325 135.639 276.457 132.624 276.598 129.858C276.754 127.077 276.903 124.499 277.043 122.124C277.059 121.78 277.161 121.491 277.348 121.257C277.551 121.007 277.801 120.803 278.098 120.647C278.395 120.475 278.731 120.35 279.106 120.272C279.481 120.194 279.856 120.155 280.231 120.155C281.153 120.155 282.129 120.382 283.161 120.835C282.957 123.507 282.77 126.03 282.598 128.405C282.442 130.764 282.301 133.046 282.176 135.249C282.067 137.452 281.965 139.616 281.871 141.741C281.778 143.85 281.7 145.999 281.637 148.186C281.59 150.358 281.551 152.6 281.52 154.913C281.504 157.21 281.496 159.647 281.496 162.225C281.496 163.647 281.504 164.85 281.52 165.835C281.551 166.819 281.645 167.639 281.801 168.296C281.957 168.936 282.192 169.444 282.504 169.819C282.817 170.194 283.262 170.483 283.84 170.686C284.418 170.874 285.145 170.999 286.02 171.061C286.911 171.124 288.004 171.171 289.301 171.202C289.598 171.202 289.746 171.335 289.746 171.6V171.694C289.746 171.757 289.739 171.811 289.723 171.858C289.098 175.546 288.496 179.233 287.918 182.921C287.356 186.608 286.801 190.342 286.254 194.124L283.934 194.03C283.95 192.967 283.965 191.819 283.981 190.585C284.012 189.35 284.036 188.092 284.051 186.811C284.082 185.546 284.106 184.296 284.121 183.061C284.153 181.827 284.176 180.671 284.192 179.592C284.207 178.53 284.223 177.577 284.239 176.733C284.254 175.905 284.262 175.257 284.262 174.788C284.262 174.569 284.231 174.413 284.168 174.319C284.106 174.225 283.895 174.178 283.536 174.178C282.645 174.163 281.801 174.147 281.004 174.132C280.223 174.116 279.473 174.108 278.754 174.108C278.051 174.092 277.364 174.085 276.692 174.085C276.036 174.069 275.379 174.061 274.723 174.061C271.317 174.061 268.293 174.077 265.653 174.108C263.012 174.139 260.715 174.171 258.762 174.202C256.825 174.233 255.2 174.264 253.887 174.296C252.59 174.327 251.567 174.342 250.817 174.342C249.942 174.342 249.215 174.225 248.637 173.991C248.059 173.741 247.598 173.413 247.254 173.007C246.911 172.585 246.668 172.108 246.528 171.577C246.387 171.03 246.317 170.452 246.317 169.842C246.317 169.389 246.364 168.085 246.457 165.928C246.567 163.772 246.684 160.882 246.809 157.257C246.95 153.632 247.067 149.327 247.161 144.342C247.27 139.358 247.325 133.803 247.325 127.678ZM290.004 142.116C291.161 141.882 292.442 141.647 293.848 141.413C295.27 141.163 296.731 140.944 298.231 140.757C299.746 140.569 301.27 140.413 302.801 140.288C304.332 140.163 305.801 140.1 307.207 140.1C308.036 140.1 308.926 140.139 309.879 140.217C310.848 140.28 311.809 140.413 312.762 140.616C313.715 140.803 314.629 141.069 315.504 141.413C316.379 141.741 317.153 142.178 317.825 142.725C318.512 143.257 319.059 143.905 319.465 144.671C319.871 145.436 320.075 146.335 320.075 147.366C320.075 148.647 319.793 149.796 319.231 150.811C318.668 151.811 317.942 152.678 317.051 153.413C316.161 154.132 315.161 154.725 314.051 155.194C312.942 155.663 311.84 155.999 310.746 156.202V156.319C312.028 156.382 313.293 156.577 314.543 156.905C315.809 157.233 316.942 157.717 317.942 158.358C318.957 158.999 319.778 159.819 320.403 160.819C321.028 161.819 321.34 163.03 321.34 164.452C321.34 165.702 321.137 166.835 320.731 167.85C320.34 168.85 319.793 169.741 319.09 170.522C318.387 171.303 317.567 171.983 316.629 172.561C315.692 173.124 314.676 173.592 313.582 173.967C312.489 174.327 311.348 174.592 310.161 174.764C308.989 174.936 307.817 175.022 306.645 175.022C305.567 175.022 304.512 174.944 303.481 174.788C302.45 174.632 301.481 174.421 300.575 174.155L296.262 174.741L295.887 174.717C296.09 172.046 296.262 169.413 296.403 166.819C296.559 164.21 296.684 161.702 296.778 159.296C296.871 156.874 296.934 154.585 296.965 152.428C297.012 150.272 297.036 148.296 297.036 146.499C297.036 145.905 296.965 145.421 296.825 145.046C296.7 144.671 296.512 144.382 296.262 144.178C296.012 143.96 295.707 143.811 295.348 143.733C294.989 143.655 294.59 143.616 294.153 143.616C293.653 143.616 293.043 143.655 292.325 143.733C291.621 143.811 290.918 143.905 290.215 144.014L290.004 142.116ZM301.301 171.342C302.145 171.749 303.02 172.046 303.926 172.233C304.832 172.421 305.715 172.514 306.575 172.514C307.762 172.514 308.895 172.35 309.973 172.022C311.051 171.678 312.004 171.178 312.832 170.522C313.661 169.85 314.317 169.03 314.801 168.061C315.301 167.077 315.551 165.944 315.551 164.663C315.551 163.288 315.246 162.155 314.637 161.264C314.043 160.358 313.246 159.647 312.246 159.132C311.262 158.616 310.129 158.257 308.848 158.053C307.582 157.85 306.278 157.749 304.934 157.749C304.434 157.749 303.926 157.764 303.411 157.796C302.911 157.811 302.411 157.835 301.911 157.866L301.301 171.342ZM302.543 142.632C302.512 143.241 302.481 143.999 302.45 144.905C302.418 145.811 302.379 146.835 302.332 147.975C302.286 149.116 302.231 150.35 302.168 151.678C302.121 153.007 302.067 154.397 302.004 155.85C303.551 155.85 305.059 155.725 306.528 155.475C308.012 155.21 309.332 154.78 310.489 154.186C311.645 153.592 312.575 152.811 313.278 151.842C313.996 150.858 314.356 149.639 314.356 148.186C314.356 146.983 314.098 146.007 313.582 145.257C313.067 144.491 312.403 143.897 311.59 143.475C310.778 143.053 309.879 142.764 308.895 142.608C307.911 142.452 306.95 142.374 306.012 142.374C305.496 142.374 304.934 142.397 304.325 142.444C303.731 142.475 303.137 142.538 302.543 142.632ZM350.332 166.866C350.426 166.913 350.543 166.983 350.684 167.077C350.84 167.155 350.981 167.249 351.106 167.358C351.231 167.452 351.34 167.561 351.434 167.686C351.528 167.796 351.575 167.905 351.575 168.014C351.575 168.077 351.551 168.139 351.504 168.202C350.629 169.421 349.684 170.483 348.668 171.389C347.668 172.28 346.621 173.03 345.528 173.639C344.45 174.233 343.348 174.671 342.223 174.952C341.098 175.249 339.989 175.397 338.895 175.397C337.02 175.397 335.301 175.014 333.739 174.249C332.176 173.483 330.832 172.436 329.707 171.108C328.582 169.78 327.7 168.225 327.059 166.444C326.434 164.647 326.121 162.725 326.121 160.678C326.121 159.007 326.301 157.335 326.661 155.663C327.036 153.991 327.567 152.397 328.254 150.882C328.957 149.366 329.809 147.96 330.809 146.663C331.809 145.35 332.942 144.217 334.207 143.264C335.489 142.296 336.887 141.538 338.403 140.991C339.934 140.444 341.575 140.171 343.325 140.171C344.481 140.171 345.582 140.327 346.629 140.639C347.676 140.952 348.59 141.405 349.371 141.999C350.168 142.577 350.801 143.296 351.27 144.155C351.739 145.014 351.973 145.991 351.973 147.085C351.973 148.678 351.45 150.069 350.403 151.257C349.371 152.444 347.942 153.452 346.114 154.28C344.286 155.108 342.129 155.78 339.645 156.296C337.176 156.796 334.504 157.171 331.629 157.421V157.819C331.629 159.819 331.879 161.647 332.379 163.303C332.895 164.96 333.598 166.382 334.489 167.569C335.379 168.741 336.426 169.655 337.629 170.311C338.832 170.967 340.129 171.296 341.52 171.296C342.926 171.296 344.364 170.952 345.832 170.264C347.317 169.561 348.817 168.428 350.332 166.866ZM345.926 148.046C345.926 147.327 345.801 146.655 345.551 146.03C345.317 145.405 344.981 144.866 344.543 144.413C344.121 143.944 343.614 143.577 343.02 143.311C342.426 143.046 341.786 142.913 341.098 142.913C340.082 142.913 339.161 143.092 338.332 143.452C337.504 143.811 336.762 144.303 336.106 144.928C335.45 145.538 334.871 146.257 334.371 147.085C333.871 147.897 333.442 148.764 333.082 149.686C332.739 150.608 332.457 151.553 332.239 152.522C332.02 153.491 331.864 154.436 331.77 155.358C333.989 155.202 335.973 154.936 337.723 154.561C339.489 154.171 340.973 153.678 342.176 153.085C343.395 152.475 344.325 151.757 344.965 150.928C345.606 150.085 345.926 149.124 345.926 148.046ZM406.817 171.272C406.239 171.725 405.528 172.186 404.684 172.655C403.856 173.108 402.989 173.522 402.082 173.897C401.176 174.272 400.293 174.577 399.434 174.811C398.575 175.046 397.832 175.163 397.207 175.163C396.786 175.163 396.395 175.124 396.036 175.046C395.692 174.983 395.371 174.819 395.075 174.553C394.793 174.288 394.536 173.897 394.301 173.382C394.082 172.85 393.895 172.132 393.739 171.225C393.582 170.319 393.465 169.194 393.387 167.85C393.309 166.507 393.27 164.874 393.27 162.952C393.27 160.827 393.293 158.921 393.34 157.233C393.387 155.546 393.434 154.053 393.481 152.757C393.528 151.46 393.575 150.35 393.621 149.428C393.668 148.491 393.692 147.717 393.692 147.108C393.692 146.624 393.668 146.186 393.621 145.796C393.575 145.405 393.465 145.077 393.293 144.811C393.121 144.53 392.864 144.319 392.52 144.178C392.176 144.022 391.715 143.944 391.137 143.944C390.215 143.944 389.043 143.952 387.621 143.967C386.215 143.967 384.434 143.975 382.278 143.991C382.184 145.725 382.082 147.585 381.973 149.569C381.879 151.538 381.786 153.733 381.692 156.155C381.614 158.561 381.536 161.241 381.457 164.194C381.379 167.132 381.317 170.444 381.27 174.132L376.348 174.741L375.973 174.717C376.098 172.499 376.223 170.085 376.348 167.475C376.473 164.866 376.59 162.21 376.7 159.507C376.825 156.788 376.926 154.1 377.004 151.444C377.082 148.788 377.137 146.303 377.168 143.991C376.34 144.007 375.481 144.014 374.59 144.014C373.715 144.014 372.793 144.014 371.825 144.014H365.403C365.465 144.296 365.512 144.585 365.543 144.882C365.575 145.178 365.59 145.616 365.59 146.194C365.59 146.788 365.559 147.882 365.496 149.475C365.45 151.069 365.371 153.077 365.262 155.499C365.168 157.905 365.051 160.686 364.911 163.842C364.786 166.999 364.645 170.428 364.489 174.132L359.707 174.741L359.332 174.717C359.457 173.186 359.567 171.577 359.661 169.889C359.77 168.202 359.864 166.507 359.942 164.803C360.036 163.1 360.114 161.436 360.176 159.811C360.254 158.186 360.309 156.671 360.34 155.264C360.387 153.842 360.418 152.585 360.434 151.491C360.465 150.382 360.481 149.499 360.481 148.842C360.481 148.014 360.457 147.311 360.411 146.733C360.364 146.139 360.254 145.639 360.082 145.233C359.911 144.811 359.668 144.475 359.356 144.225C359.043 143.975 358.621 143.78 358.09 143.639C357.559 143.499 356.903 143.405 356.121 143.358C355.356 143.296 354.426 143.257 353.332 143.241L353.286 141.272C354.707 141.303 355.95 141.327 357.012 141.342C358.09 141.342 359.02 141.35 359.801 141.366C360.582 141.366 361.239 141.366 361.77 141.366C362.317 141.366 362.778 141.366 363.153 141.366H364.371C369.481 141.366 373.942 141.358 377.754 141.342C381.582 141.311 384.832 141.28 387.504 141.249C390.192 141.217 392.332 141.194 393.926 141.178C395.52 141.147 396.645 141.132 397.301 141.132C398.004 141.132 398.512 141.303 398.825 141.647C399.137 141.975 399.293 142.444 399.293 143.053C399.293 143.303 399.262 143.749 399.2 144.389C399.153 145.014 399.09 145.78 399.012 146.686C398.934 147.592 398.84 148.608 398.731 149.733C398.637 150.858 398.551 152.038 398.473 153.272C398.395 154.507 398.325 155.78 398.262 157.092C398.215 158.389 398.192 159.663 398.192 160.913C398.192 162.475 398.215 163.819 398.262 164.944C398.325 166.069 398.411 167.014 398.52 167.78C398.645 168.546 398.793 169.163 398.965 169.632C399.137 170.085 399.348 170.436 399.598 170.686C399.848 170.936 400.137 171.1 400.465 171.178C400.793 171.257 401.161 171.296 401.567 171.296C402.317 171.296 403.082 171.194 403.864 170.991C404.645 170.772 405.481 170.46 406.371 170.053L406.817 171.272ZM408.668 160.655C408.668 159.077 408.832 157.475 409.161 155.85C409.489 154.225 409.973 152.655 410.614 151.139C411.254 149.608 412.043 148.178 412.981 146.85C413.934 145.507 415.028 144.335 416.262 143.335C417.496 142.335 418.871 141.546 420.387 140.967C421.903 140.389 423.551 140.1 425.332 140.1C427.332 140.1 429.098 140.522 430.629 141.366C432.176 142.21 433.473 143.327 434.52 144.717C435.567 146.092 436.356 147.663 436.887 149.428C437.434 151.194 437.707 152.999 437.707 154.842C437.707 156.421 437.543 158.022 437.215 159.647C436.887 161.272 436.395 162.85 435.739 164.382C435.098 165.897 434.301 167.327 433.348 168.671C432.411 169.999 431.325 171.163 430.09 172.163C428.856 173.163 427.481 173.952 425.965 174.53C424.45 175.108 422.801 175.397 421.02 175.397C419.02 175.397 417.246 174.975 415.7 174.132C414.168 173.288 412.879 172.178 411.832 170.803C410.801 169.413 410.012 167.835 409.465 166.069C408.934 164.303 408.668 162.499 408.668 160.655ZM414.27 158.428C414.27 159.491 414.348 160.569 414.504 161.663C414.676 162.757 414.934 163.811 415.278 164.827C415.621 165.842 416.043 166.796 416.543 167.686C417.059 168.561 417.661 169.327 418.348 169.983C419.051 170.639 419.832 171.155 420.692 171.53C421.567 171.905 422.528 172.092 423.575 172.092C424.715 172.092 425.715 171.85 426.575 171.366C427.45 170.866 428.2 170.21 428.825 169.397C429.465 168.585 429.989 167.655 430.395 166.608C430.817 165.561 431.153 164.483 431.403 163.374C431.653 162.249 431.825 161.139 431.918 160.046C432.028 158.952 432.082 157.944 432.082 157.022C432.082 155.944 431.996 154.866 431.825 153.788C431.668 152.694 431.418 151.647 431.075 150.647C430.731 149.632 430.301 148.686 429.786 147.811C429.286 146.921 428.684 146.155 427.981 145.514C427.293 144.858 426.512 144.342 425.637 143.967C424.778 143.592 423.825 143.405 422.778 143.405C421.637 143.405 420.629 143.647 419.754 144.132C418.895 144.616 418.145 145.264 417.504 146.077C416.879 146.889 416.356 147.819 415.934 148.866C415.528 149.913 415.2 150.991 414.95 152.1C414.7 153.21 414.52 154.319 414.411 155.428C414.317 156.522 414.27 157.522 414.27 158.428ZM440.286 142.116C441.442 141.882 442.723 141.647 444.129 141.413C445.551 141.163 447.012 140.944 448.512 140.757C450.028 140.569 451.551 140.413 453.082 140.288C454.614 140.163 456.082 140.1 457.489 140.1C458.317 140.1 459.207 140.139 460.161 140.217C461.129 140.28 462.09 140.413 463.043 140.616C463.996 140.803 464.911 141.069 465.786 141.413C466.661 141.741 467.434 142.178 468.106 142.725C468.793 143.257 469.34 143.905 469.746 144.671C470.153 145.436 470.356 146.335 470.356 147.366C470.356 148.647 470.075 149.796 469.512 150.811C468.95 151.811 468.223 152.678 467.332 153.413C466.442 154.132 465.442 154.725 464.332 155.194C463.223 155.663 462.121 155.999 461.028 156.202V156.319C462.309 156.382 463.575 156.577 464.825 156.905C466.09 157.233 467.223 157.717 468.223 158.358C469.239 158.999 470.059 159.819 470.684 160.819C471.309 161.819 471.621 163.03 471.621 164.452C471.621 165.702 471.418 166.835 471.012 167.85C470.621 168.85 470.075 169.741 469.371 170.522C468.668 171.303 467.848 171.983 466.911 172.561C465.973 173.124 464.957 173.592 463.864 173.967C462.77 174.327 461.629 174.592 460.442 174.764C459.27 174.936 458.098 175.022 456.926 175.022C455.848 175.022 454.793 174.944 453.762 174.788C452.731 174.632 451.762 174.421 450.856 174.155L446.543 174.741L446.168 174.717C446.371 172.046 446.543 169.413 446.684 166.819C446.84 164.21 446.965 161.702 447.059 159.296C447.153 156.874 447.215 154.585 447.246 152.428C447.293 150.272 447.317 148.296 447.317 146.499C447.317 145.905 447.246 145.421 447.106 145.046C446.981 144.671 446.793 144.382 446.543 144.178C446.293 143.96 445.989 143.811 445.629 143.733C445.27 143.655 444.871 143.616 444.434 143.616C443.934 143.616 443.325 143.655 442.606 143.733C441.903 143.811 441.2 143.905 440.496 144.014L440.286 142.116ZM451.582 171.342C452.426 171.749 453.301 172.046 454.207 172.233C455.114 172.421 455.996 172.514 456.856 172.514C458.043 172.514 459.176 172.35 460.254 172.022C461.332 171.678 462.286 171.178 463.114 170.522C463.942 169.85 464.598 169.03 465.082 168.061C465.582 167.077 465.832 165.944 465.832 164.663C465.832 163.288 465.528 162.155 464.918 161.264C464.325 160.358 463.528 159.647 462.528 159.132C461.543 158.616 460.411 158.257 459.129 158.053C457.864 157.85 456.559 157.749 455.215 157.749C454.715 157.749 454.207 157.764 453.692 157.796C453.192 157.811 452.692 157.835 452.192 157.866L451.582 171.342ZM452.825 142.632C452.793 143.241 452.762 143.999 452.731 144.905C452.7 145.811 452.661 146.835 452.614 147.975C452.567 149.116 452.512 150.35 452.45 151.678C452.403 153.007 452.348 154.397 452.286 155.85C453.832 155.85 455.34 155.725 456.809 155.475C458.293 155.21 459.614 154.78 460.77 154.186C461.926 153.592 462.856 152.811 463.559 151.842C464.278 150.858 464.637 149.639 464.637 148.186C464.637 146.983 464.379 146.007 463.864 145.257C463.348 144.491 462.684 143.897 461.871 143.475C461.059 143.053 460.161 142.764 459.176 142.608C458.192 142.452 457.231 142.374 456.293 142.374C455.778 142.374 455.215 142.397 454.606 142.444C454.012 142.475 453.418 142.538 452.825 142.632Z" fill="#D0C45C"/>
<path d="M174.045 151.403C174.045 150.169 173.842 149.098 173.436 148.192C173.03 147.286 172.498 146.544 171.842 145.966C171.186 145.387 170.444 144.958 169.616 144.677C168.787 144.395 167.959 144.255 167.131 144.255C166.022 144.255 165.084 144.372 164.319 144.606C163.553 144.841 162.928 145.161 162.444 145.567C161.975 145.973 161.631 146.458 161.412 147.02C161.209 147.567 161.108 148.161 161.108 148.802C161.108 149.552 161.241 150.309 161.506 151.075C161.787 151.825 162.194 152.559 162.725 153.278L162.631 153.536C161.741 153.973 160.842 154.192 159.936 154.192C159.405 154.192 158.905 154.114 158.436 153.958C157.983 153.786 157.584 153.544 157.241 153.231C156.912 152.919 156.647 152.536 156.444 152.083C156.256 151.63 156.162 151.122 156.162 150.559C156.162 149.637 156.381 148.77 156.819 147.958C157.272 147.145 157.866 146.403 158.6 145.731C159.334 145.059 160.186 144.458 161.155 143.927C162.123 143.395 163.123 142.95 164.155 142.591C165.186 142.216 166.217 141.934 167.248 141.747C168.295 141.544 169.264 141.442 170.155 141.442C171.795 141.442 173.194 141.661 174.35 142.098C175.522 142.536 176.467 143.177 177.186 144.02C177.92 144.848 178.452 145.856 178.78 147.044C179.123 148.231 179.295 149.575 179.295 151.075C179.295 152.106 179.248 153.239 179.155 154.473C179.077 155.708 178.983 157.005 178.873 158.364C178.764 159.708 178.662 161.098 178.569 162.536C178.491 163.973 178.452 165.403 178.452 166.825C178.452 169.075 178.866 170.77 179.694 171.911C180.537 173.036 181.639 173.598 182.998 173.598C184.202 173.598 185.545 173.153 187.03 172.262L187.709 173.27C186.662 174.317 185.522 175.114 184.287 175.661C183.053 176.208 181.756 176.481 180.397 176.481C179.381 176.481 178.444 176.309 177.584 175.966C176.725 175.622 175.983 175.114 175.358 174.442C174.733 173.755 174.248 172.895 173.905 171.864C173.561 170.833 173.389 169.637 173.389 168.278C173.389 167.872 173.397 167.466 173.412 167.059C173.444 166.653 173.498 166.223 173.577 165.77H173.436C172.764 167.114 171.983 168.442 171.092 169.755C170.217 171.052 169.248 172.216 168.186 173.247C167.139 174.262 166.014 175.083 164.811 175.708C163.623 176.348 162.373 176.669 161.061 176.669C159.983 176.669 158.998 176.481 158.108 176.106C157.217 175.731 156.452 175.216 155.811 174.559C155.186 173.903 154.694 173.13 154.334 172.239C153.991 171.333 153.819 170.348 153.819 169.286C153.819 167.911 154.069 166.661 154.569 165.536C155.084 164.411 155.787 163.403 156.678 162.512C157.584 161.622 158.662 160.856 159.912 160.216C161.162 159.559 162.522 159.02 163.991 158.598C165.459 158.161 167.014 157.841 168.655 157.637C170.295 157.419 171.967 157.309 173.67 157.309C173.78 156.325 173.866 155.372 173.928 154.45C174.006 153.528 174.045 152.512 174.045 151.403ZM159.655 167.505C159.655 168.114 159.717 168.7 159.842 169.262C159.983 169.809 160.194 170.294 160.475 170.716C160.772 171.137 161.139 171.473 161.577 171.723C162.03 171.958 162.569 172.075 163.194 172.075C163.897 172.075 164.623 171.911 165.373 171.583C166.123 171.255 166.858 170.802 167.577 170.223C168.311 169.645 169.006 168.958 169.662 168.161C170.334 167.348 170.936 166.466 171.467 165.512C171.998 164.559 172.436 163.559 172.78 162.512C173.139 161.45 173.373 160.364 173.483 159.255C172.327 159.286 171.178 159.364 170.037 159.489C168.897 159.598 167.811 159.778 166.78 160.028C165.764 160.278 164.819 160.606 163.944 161.012C163.069 161.419 162.311 161.927 161.67 162.536C161.045 163.13 160.553 163.841 160.194 164.669C159.834 165.481 159.655 166.427 159.655 167.505ZM187.827 193.473C187.702 190.13 187.522 186.817 187.287 183.536C187.053 180.27 186.78 176.981 186.467 173.669C186.467 173.387 186.608 173.247 186.889 173.247C187.295 173.247 187.717 173.247 188.155 173.247C188.592 173.231 189.037 173.223 189.491 173.223C190.319 170.911 191.202 168.552 192.139 166.145C193.092 163.723 194.116 161.255 195.209 158.739C196.319 156.223 197.522 153.653 198.819 151.028C200.131 148.403 201.569 145.708 203.131 142.942C203.319 142.614 203.53 142.356 203.764 142.169C203.998 141.966 204.241 141.817 204.491 141.723C204.741 141.614 204.991 141.544 205.241 141.512C205.506 141.481 205.748 141.466 205.967 141.466C206.452 141.466 206.928 141.512 207.397 141.606C207.866 141.684 208.311 141.825 208.733 142.028C209.17 144.669 209.584 147.091 209.975 149.294C210.366 151.497 210.748 153.544 211.123 155.434C211.498 157.309 211.858 159.052 212.202 160.661C212.545 162.27 212.897 163.794 213.256 165.231C213.616 166.653 213.975 168.02 214.334 169.333C214.694 170.63 215.069 171.919 215.459 173.2C216.256 173.216 216.998 173.231 217.686 173.247C218.373 173.262 218.983 173.286 219.514 173.317C219.795 173.333 219.991 173.38 220.1 173.458C220.209 173.536 220.264 173.661 220.264 173.833C220.264 173.864 220.256 173.911 220.241 173.973C220.241 174.02 220.233 174.083 220.217 174.161C219.67 177.427 219.155 180.669 218.67 183.887C218.202 187.106 217.764 190.364 217.358 193.661L215.483 193.591C215.452 190.559 215.373 187.552 215.248 184.567C215.139 181.598 215.022 178.598 214.897 175.567C214.084 175.552 213.319 175.536 212.6 175.52C211.881 175.52 211.17 175.512 210.467 175.497C209.764 175.497 209.053 175.497 208.334 175.497C207.616 175.497 206.858 175.497 206.061 175.497H198.842C198.03 175.497 197.28 175.497 196.592 175.497C195.92 175.497 195.28 175.497 194.67 175.497C194.077 175.512 193.514 175.52 192.983 175.52C192.452 175.536 191.936 175.552 191.436 175.567C191.264 176.973 191.1 178.434 190.944 179.95C190.787 181.466 190.639 182.997 190.498 184.544C190.358 186.091 190.217 187.622 190.077 189.137C189.952 190.669 189.827 192.137 189.702 193.544L187.827 193.473ZM206.483 173.13C207.077 173.13 207.662 173.13 208.241 173.13C208.834 173.13 209.42 173.137 209.998 173.153C209.452 171.169 208.936 169.153 208.452 167.106C207.967 165.044 207.498 162.911 207.045 160.708C206.608 158.489 206.178 156.169 205.756 153.747C205.35 151.325 204.936 148.739 204.514 145.989H204.35C201.756 150.692 199.491 155.333 197.553 159.911C195.631 164.473 194.006 168.895 192.678 173.177C194.241 173.177 195.748 173.169 197.202 173.153C198.67 173.137 199.952 173.13 201.045 173.13H206.483Z" fill="#5D4F79"/>
<path d="M127.559 82.1226C131.653 82.1226 135.434 82.4976 138.903 83.2476C142.403 83.9976 145.418 84.9195 147.949 86.0132C150.481 87.107 152.465 88.2789 153.903 89.5289C155.34 90.7789 156.059 91.9195 156.059 92.9507C156.059 95.107 155.981 97.9039 155.824 101.341C155.668 104.779 155.465 108.935 155.215 113.81L151.137 113.669C151.168 113.232 151.184 112.826 151.184 112.451C151.215 112.044 151.231 111.623 151.231 111.185C151.199 109.029 150.949 106.982 150.481 105.044C150.043 103.076 149.231 101.201 148.043 99.4195C146.793 97.6382 145.293 96.0601 143.543 94.6851C141.824 93.3101 139.934 92.1539 137.871 91.2164C135.809 90.2789 133.606 89.5757 131.262 89.107C128.918 88.607 126.528 88.357 124.09 88.357C119.903 88.357 116.09 89.0132 112.653 90.3257C109.246 91.607 106.199 93.4039 103.512 95.7164C100.824 97.9976 98.4807 100.716 96.4807 103.873C94.512 106.998 92.8713 110.404 91.5588 114.091C90.2776 117.779 89.3088 121.654 88.6526 125.716C88.0276 129.779 87.7151 133.888 87.7151 138.044C87.7151 142.951 88.1213 147.576 88.9338 151.919C89.7463 156.263 90.9026 160.263 92.4026 163.919C93.9026 167.576 95.7151 170.857 97.8401 173.763C99.9651 176.669 102.34 179.138 104.965 181.169C107.621 183.169 110.481 184.701 113.543 185.763C116.637 186.826 119.887 187.357 123.293 187.357C125.668 187.357 128.106 187.107 130.606 186.607C133.137 186.076 135.699 185.263 138.293 184.169C140.887 183.044 143.496 181.638 146.121 179.951C148.778 178.232 151.418 176.185 154.043 173.81C154.293 173.935 154.574 174.091 154.887 174.279C155.231 174.466 155.543 174.685 155.824 174.935C156.106 175.154 156.34 175.404 156.528 175.685C156.746 175.966 156.856 176.248 156.856 176.529C156.856 176.716 156.731 176.982 156.481 177.326C153.418 180.701 150.324 183.529 147.199 185.81C144.074 188.091 140.934 189.935 137.778 191.341C134.621 192.748 131.434 193.748 128.215 194.341C125.028 194.966 121.84 195.279 118.653 195.279C114.434 195.279 110.403 194.685 106.559 193.498C102.746 192.341 99.1995 190.669 95.9182 188.482C92.637 186.294 89.6682 183.654 87.012 180.56C84.3557 177.435 82.0901 173.935 80.2151 170.06C78.3401 166.185 76.887 161.982 75.8557 157.451C74.8557 152.888 74.3557 148.076 74.3557 143.013C74.3557 138.138 74.8401 133.248 75.8088 128.341C76.8088 123.404 78.2776 118.685 80.2151 114.185C82.1838 109.685 84.637 105.482 87.5745 101.576C90.5432 97.6695 93.9963 94.2789 97.9338 91.4039C101.871 88.4976 106.309 86.232 111.246 84.607C116.184 82.9507 121.621 82.1226 127.559 82.1226Z" fill="#D0C45C"/>
<path d="M125.958 84.415C130.052 84.415 133.833 84.79 137.302 85.54C140.802 86.29 143.817 87.2119 146.349 88.3057C148.88 89.3994 150.864 90.5713 152.302 91.8213C153.739 93.0713 154.458 94.2119 154.458 95.2432C154.458 97.3994 154.38 100.196 154.224 103.634C154.067 107.071 153.864 111.228 153.614 116.103L149.536 115.962C149.567 115.524 149.583 115.118 149.583 114.743C149.614 114.337 149.63 113.915 149.63 113.478C149.599 111.321 149.349 109.274 148.88 107.337C148.442 105.368 147.63 103.493 146.442 101.712C145.192 99.9307 143.692 98.3525 141.942 96.9775C140.224 95.6025 138.333 94.4463 136.271 93.5088C134.208 92.5713 132.005 91.8682 129.661 91.3994C127.317 90.8994 124.927 90.6494 122.489 90.6494C118.302 90.6494 114.489 91.3057 111.052 92.6182C107.646 93.8994 104.599 95.6963 101.911 98.0088C99.2236 100.29 96.8799 103.009 94.8799 106.165C92.9111 109.29 91.2705 112.696 89.958 116.384C88.6768 120.071 87.708 123.946 87.0518 128.009C86.4268 132.071 86.1143 136.181 86.1143 140.337C86.1143 145.243 86.5205 149.868 87.333 154.212C88.1455 158.556 89.3018 162.556 90.8018 166.212C92.3018 169.868 94.1143 173.149 96.2393 176.056C98.3643 178.962 100.739 181.431 103.364 183.462C106.021 185.462 108.88 186.993 111.942 188.056C115.036 189.118 118.286 189.649 121.692 189.649C124.067 189.649 126.505 189.399 129.005 188.899C131.536 188.368 134.099 187.556 136.692 186.462C139.286 185.337 141.896 183.931 144.521 182.243C147.177 180.524 149.817 178.478 152.442 176.103C152.692 176.228 152.974 176.384 153.286 176.571C153.63 176.759 153.942 176.978 154.224 177.228C154.505 177.446 154.739 177.696 154.927 177.978C155.146 178.259 155.255 178.54 155.255 178.821C155.255 179.009 155.13 179.274 154.88 179.618C151.817 182.993 148.724 185.821 145.599 188.103C142.474 190.384 139.333 192.228 136.177 193.634C133.021 195.04 129.833 196.04 126.614 196.634C123.427 197.259 120.239 197.571 117.052 197.571C112.833 197.571 108.802 196.978 104.958 195.79C101.146 194.634 97.5986 192.962 94.3174 190.774C91.0361 188.587 88.0674 185.946 85.4111 182.853C82.7549 179.728 80.4893 176.228 78.6143 172.353C76.7393 168.478 75.2861 164.274 74.2549 159.743C73.2549 155.181 72.7549 150.368 72.7549 145.306C72.7549 140.431 73.2393 135.54 74.208 130.634C75.208 125.696 76.6768 120.978 78.6143 116.478C80.583 111.978 83.0361 107.774 85.9736 103.868C88.9424 99.9619 92.3955 96.5713 96.333 93.6963C100.271 90.79 104.708 88.5244 109.646 86.8994C114.583 85.2432 120.021 84.415 125.958 84.415Z" fill="#5D4F79"/>
</g>
<defs>
<clipPath id="clip0_1305_2">
<rect width="472.552" height="202.095" fill="white"/>
</clipPath>
</defs>
</svg>
